<svg preserveAspectRatio="none" width="100%" height="100%" overflow="visible" style="display: block;" viewBox="0 0 182.542 80" fill="none" xmlns="http://www.w3.org/2000/svg">
<g id="Group">
<g id="Group_2">
<path id="Vector" d="M28.904 53.289C28.296 53.289 27.7809 53.0722 27.3594 52.638C26.9253 52.216 26.709 51.702 26.709 51.094V28.9038C26.709 28.2963 26.9253 27.7817 27.3594 27.3597C27.7809 26.9261 28.2954 26.7087 28.904 26.7087C29.5115 26.7087 30.0261 26.9261 30.4476 27.3597C30.8817 27.7817 31.0991 28.2963 31.0991 28.9038V51.094C31.0991 51.7015 30.8817 52.216 30.4476 52.638C30.0261 53.0727 29.5115 53.289 28.904 53.289Z" fill="var(--fill-0, #006D93)"/>
<path id="Vector_2" d="M54.7701 52.4524H54.7519V52.4343L41.3787 35.229V51.0949C41.3787 51.7024 41.1613 52.2169 40.7272 52.639C40.3057 53.0731 39.7912 53.29 39.1837 53.29C38.5762 53.29 38.0617 53.0731 37.6402 52.639C37.206 52.2169 36.9886 51.703 36.9886 51.0949V28.8117C36.9886 28.3407 37.1251 27.9192 37.398 27.5466C37.6699 27.1625 38.0297 26.8957 38.476 26.7471C38.9102 26.5859 39.3564 26.5738 39.8154 26.7102C40.2622 26.8467 40.6281 27.1009 40.9137 27.4729L54.2858 44.6969V28.8117C54.2858 28.2042 54.4977 27.6897 54.9186 27.2677C55.3528 26.834 55.8728 26.6167 56.4814 26.6167C57.0889 26.6167 57.6034 26.834 58.0249 27.2677C58.4591 27.6897 58.6764 28.2042 58.6764 28.8117V51.1318C58.6764 51.1565 58.6698 51.194 58.6583 51.2435C58.6583 51.293 58.6583 51.3238 58.6583 51.3365C58.6583 51.3612 58.6517 51.3981 58.639 51.4476C58.639 51.4977 58.6324 51.5346 58.6209 51.5593L58.6027 51.6523C58.5901 51.7145 58.5768 51.7519 58.5653 51.764C58.5653 51.7762 58.5526 51.8075 58.5279 51.857C58.5163 51.9066 58.5031 51.9434 58.4916 51.9682L58.4541 52.0617L58.398 52.1547C58.3865 52.1795 58.3666 52.2164 58.3419 52.2659L58.2858 52.322C58.2742 52.3473 58.2494 52.3842 58.2115 52.4337L58.1553 52.508C58.1438 52.5201 58.119 52.5449 58.0811 52.5829C58.0436 52.6324 58.0189 52.6571 58.0068 52.6571C58.0068 52.6692 57.982 52.694 57.9325 52.732C57.8951 52.7688 57.8637 52.7936 57.8389 52.8063C57.8764 52.7815 57.8703 52.7876 57.8208 52.825L57.8015 52.8431C57.7025 52.918 57.6089 52.9796 57.5231 53.0291H57.5049C57.4048 53.0792 57.3063 53.1221 57.2072 53.1595C57.1566 53.1843 57.145 53.1909 57.1698 53.1777C57.0708 53.2151 56.9657 53.2399 56.8539 53.2525L56.7978 53.2707C56.6861 53.2833 56.5805 53.2894 56.482 53.2894C56.4066 53.2894 56.3262 53.2833 56.2404 53.2707C56.2652 53.2833 56.252 53.2833 56.203 53.2707C56.1287 53.2591 56.0665 53.2459 56.017 53.2338C56.0285 53.2459 56.0043 53.2404 55.9427 53.2157C55.8805 53.2036 55.831 53.1909 55.7936 53.1782C55.782 53.1782 55.7573 53.1667 55.7193 53.1414C55.6571 53.1293 55.6076 53.1106 55.5707 53.0852C55.5449 53.0852 55.5201 53.0737 55.4953 53.0484C55.4458 53.0236 55.4029 53.0049 55.3655 52.9922C55.3292 52.9675 55.3033 52.9493 55.2912 52.9361C55.2538 52.9114 55.2108 52.8805 55.1613 52.8431C55.1239 52.8184 55.0991 52.8002 55.087 52.787C55.0248 52.738 54.9687 52.6879 54.9192 52.6384L54.901 52.6197V52.601C54.8504 52.5515 54.8257 52.5267 54.8257 52.5267C54.8257 52.5267 54.808 52.5025 54.7701 52.4524Z" fill="var(--fill-0, #006D93)"/>
<path id="Vector_3" d="M81.5226 45.3473C81.4235 47.5671 80.537 49.4457 78.8637 50.9832C77.1765 52.5207 75.1675 53.2894 72.8366 53.2894C70.8149 53.2894 69.005 52.8558 67.4059 51.9874C65.4833 50.9458 64.2622 49.4331 63.7411 47.4488C63.5926 46.8661 63.6668 46.3141 63.9645 45.7936C64.2738 45.273 64.7212 44.9379 65.3039 44.7893C65.8866 44.6408 66.4386 44.7145 66.9591 45.0122C67.4802 45.322 67.8148 45.7688 67.9639 46.3516C68.1873 47.183 68.7948 47.8334 69.7864 48.305C70.6795 48.7139 71.6964 48.9186 72.8366 48.9186C74.0026 48.9186 75.0002 48.5532 75.8317 47.8213C76.6741 47.1021 77.1204 46.2091 77.171 45.1426C77.1958 44.4983 76.9658 43.9216 76.4821 43.4126C75.7139 42.5943 74.4241 42.1728 72.6142 42.148H72.595C72.5455 42.148 72.5328 42.148 72.5587 42.148C72.546 42.148 72.5328 42.148 72.5212 42.148C69.4832 42.0985 67.1583 41.2241 65.546 39.5249C64.2188 38.1118 63.5997 36.4682 63.6856 34.5961C63.7857 32.3637 64.6722 30.4796 66.3456 28.9416C68.02 27.4041 70.0285 26.6354 72.3727 26.6354C74.3933 26.6354 76.2042 27.0695 77.8033 27.9373C79.7248 28.979 80.947 30.4922 81.4681 32.4759C81.6167 33.0592 81.5358 33.6106 81.2265 34.1312C80.9288 34.6523 80.4881 34.9874 79.9059 35.1354C79.322 35.2845 78.7712 35.2102 78.2496 34.9125C77.7296 34.6033 77.3939 34.1565 77.2459 33.5732C77.0225 32.7423 76.4089 32.0919 75.4047 31.6203C74.5231 31.2109 73.5128 31.0062 72.3727 31.0062C71.2067 31.0062 70.2019 31.3721 69.3588 32.104C68.5279 32.8353 68.0872 33.7284 68.0382 34.7821C68.0134 35.4271 68.2434 36.0092 68.726 36.5303C69.4953 37.337 70.7851 37.7525 72.595 37.7773H72.6885C75.726 37.8268 78.0515 38.7067 79.6638 40.4185C80.9899 41.8201 81.6101 43.4626 81.5226 45.3473Z" fill="var(--fill-0, #006D93)"/>
<path id="Vector_4" d="M97.9729 53.2892C94.29 53.2892 91.1474 51.9812 88.5429 49.3647C85.9258 46.7608 84.6179 43.6171 84.6179 39.9341C84.6179 36.2512 85.9258 33.1014 88.5429 30.4849C91.1468 27.881 94.2894 26.5785 97.9729 26.5785C101.656 26.5785 104.805 27.8804 107.422 30.4849C110.026 33.1014 111.328 36.2512 111.328 39.9341C111.328 43.6165 110.027 46.7602 107.422 49.3647C104.805 51.9812 101.656 53.2892 97.9729 53.2892ZM97.9729 32.8538C96.0233 32.8538 94.3587 33.5449 92.9787 34.9261C91.5881 36.3161 90.8926 37.9862 90.8926 39.9352C90.8926 41.8843 91.5881 43.5489 92.9787 44.9295C94.3587 46.32 96.0233 47.0156 97.9729 47.0156C99.9214 47.0156 101.592 46.32 102.983 44.9295C104.364 43.5489 105.054 41.8843 105.054 39.9352C105.054 37.9862 104.364 36.3167 102.983 34.9261C101.592 33.5444 99.9214 32.8538 97.9729 32.8538Z" fill="var(--fill-0, #E9530E)"/>
<path id="Vector_5" d="M131.756 26.6167C132.363 26.6167 132.884 26.834 133.318 27.2676C133.74 27.7018 133.95 28.2224 133.95 28.8304C133.95 29.4379 133.733 29.9524 133.299 30.3739C132.877 30.8081 132.363 31.0254 131.755 31.0254H131.737L120.502 30.9886V37.7404H128.611C129.219 37.7404 129.74 37.9517 130.174 38.3727C130.608 38.8068 130.826 39.3274 130.826 39.9354C130.826 40.5435 130.608 41.064 130.174 41.4976C129.74 41.9197 129.219 42.1299 128.611 42.1299H120.502V51.0955C120.502 51.703 120.284 52.2175 119.851 52.6395C119.417 53.0737 118.896 53.2905 118.288 53.2905C117.681 53.2905 117.166 53.0737 116.745 52.6395C116.311 52.2175 116.093 51.7035 116.093 51.0955V28.7935C116.093 28.1739 116.311 27.6534 116.745 27.2313C117.166 26.7972 117.681 26.5798 118.288 26.5798H118.307L131.756 26.6167Z" fill="var(--fill-0, #006D93)"/>
<path id="Vector_6" d="M143.725 30.9691H138.2C137.592 30.9691 137.072 30.7523 136.638 30.3182C136.216 29.8961 136.006 29.3821 136.006 28.7741C136.006 28.166 136.217 27.6521 136.638 27.23C137.072 26.7959 137.592 26.5785 138.2 26.5785H153.658C154.252 26.5785 154.767 26.7959 155.201 27.23C155.623 27.6521 155.833 28.166 155.833 28.7741C155.833 29.3821 155.622 29.8961 155.201 30.3182C154.767 30.7523 154.252 30.9691 153.658 30.9691H148.114V51.0947C148.114 51.7022 147.897 52.2233 147.464 52.6569C147.041 53.079 146.527 53.2892 145.919 53.2892C145.312 53.2892 144.797 53.0784 144.376 52.6569C143.941 52.2233 143.724 51.7028 143.724 51.0947V30.9691H143.725Z" fill="var(--fill-0, #006D93)"/>
<path id="Vector_7" d="M106.549 55.7048H90.2251V61.7627H106.549V55.7048Z" fill="var(--fill-0, #E9530E)"/>
</g>
<g id="Vector_8">
</g>
</g>
</svg>
