<svg preserveAspectRatio="none" width="100%" height="100%" overflow="visible" style="display: block;" viewBox="0 0 17.8734 26.654" fill="none" xmlns="http://www.w3.org/2000/svg">
<path id="Vector" d="M17.8557 18.712C17.7567 20.9317 16.8702 22.8104 15.1968 24.3478C13.5097 25.8853 11.5006 26.654 9.16969 26.654C7.148 26.654 5.33816 26.2204 3.73907 25.3521C1.81642 24.3104 0.595372 22.7977 0.0742653 20.8134C-0.0743077 20.2307 -1.79742e-05 19.6788 0.297678 19.1582C0.606931 18.6377 1.0543 18.3026 1.63703 18.154C2.21977 18.0054 2.7717 18.0792 3.29225 18.3769C3.81336 18.6867 4.14792 19.1335 4.29704 19.7162C4.52045 20.5477 5.12796 21.1981 6.11954 21.6697C7.01263 22.0785 8.02953 22.2832 9.16969 22.2832C10.3357 22.2832 11.3334 21.9178 12.1648 21.186C13.0073 20.4668 13.4535 19.5737 13.5042 18.5073C13.5289 17.8629 13.2989 17.2862 12.8152 16.7772C12.0471 15.959 10.7572 15.5374 8.94738 15.5127H8.92812C8.87859 15.5127 8.86594 15.5127 8.8918 15.5127C8.87915 15.5127 8.86594 15.5127 8.85438 15.5127C5.81634 15.4632 3.49145 14.5888 1.87915 12.8895C0.5519 11.4765 -0.0671531 9.83279 0.0186891 7.96077C0.118838 5.72832 1.00532 3.8442 2.6787 2.30619C4.35317 0.768733 6.36166 0 8.70581 0C10.7264 0 12.5374 0.434162 14.1364 1.30194C16.058 2.3436 17.2801 3.85685 17.8012 5.84058C17.9498 6.42387 17.8689 6.97524 17.5597 7.49579C17.262 8.0169 16.8212 8.35202 16.239 8.50004C15.6552 8.64917 15.1044 8.57488 14.5827 8.27718C14.0627 7.96793 13.727 7.5211 13.579 6.93781C13.3556 6.1069 12.742 5.4565 11.7378 4.98491C10.8563 4.57551 9.84597 4.37081 8.70581 4.37081C7.53979 4.37081 6.53499 4.73674 5.69198 5.4686C4.86107 6.19991 4.42031 7.093 4.37133 8.14677C4.34657 8.79169 4.57658 9.37387 5.05917 9.89498C5.82845 10.7017 7.11828 11.1171 8.92812 11.1419H9.02166C12.0592 11.1914 14.3846 12.0713 15.9969 13.7832C17.323 15.1847 17.9432 16.8273 17.8557 18.712Z" fill="var(--fill-0, #006D93)"/>
</svg>
