<svg preserveAspectRatio="none" width="100%" height="100%" overflow="visible" style="display: block;" viewBox="0 0 26.7101 26.7107" fill="none" xmlns="http://www.w3.org/2000/svg">
<path id="Vector" d="M13.3551 26.7107C9.6721 26.7107 6.52951 25.4027 3.92508 22.7862C1.30799 20.1823 0 17.0386 0 13.3556C0 9.67266 1.30799 6.52291 3.92508 3.90637C6.52896 1.30249 9.67155 0 13.3551 0C17.0386 0 20.1872 1.30194 22.8043 3.90637C25.4082 6.52291 26.7101 9.67266 26.7101 13.3556C26.7101 17.038 25.4087 20.1817 22.8043 22.7862C20.1872 25.4027 17.038 26.7107 13.3551 26.7107ZM13.3551 6.2753C11.4055 6.2753 9.74089 6.96643 8.36081 8.34761C6.97028 9.7376 6.27473 11.4077 6.27473 13.3567C6.27473 15.3058 6.97028 16.9703 8.36081 18.351C9.74089 19.7415 11.4055 20.4371 13.3551 20.4371C15.3036 20.4371 16.9736 19.7415 18.3647 18.351C19.7459 16.9703 20.436 15.3058 20.436 13.3567C20.436 11.4077 19.7459 9.73815 18.3647 8.34761C16.9736 6.96588 15.3036 6.2753 13.3551 6.2753Z" fill="var(--fill-0, #E9530E)"/>
</svg>
