<svg preserveAspectRatio="none" width="100%" height="100%" overflow="visible" style="display: block;" viewBox="0 0 19.8268 26.7107" fill="none" xmlns="http://www.w3.org/2000/svg">
<path id="Vector" d="M7.71865 4.39061H2.19448C1.58643 4.39061 1.06588 4.17381 0.631716 3.73965C0.210209 3.31759 0 2.80364 0 2.19559C0 1.58754 0.210759 1.07359 0.631716 0.651532C1.06588 0.217368 1.58588 0 2.19448 0H17.6516C18.2459 0 18.7609 0.217368 19.1951 0.651532C19.6166 1.07359 19.8268 1.58754 19.8268 2.19559C19.8268 2.80364 19.616 3.31759 19.1951 3.73965C18.7609 4.17381 18.2459 4.39061 17.6516 4.39061H12.1082V24.5162C12.1082 25.1237 11.8908 25.6448 11.4577 26.0784C11.0351 26.5005 10.5206 26.7107 9.91312 26.7107C9.30562 26.7107 8.79112 26.4999 8.36961 26.0784C7.93545 25.6448 7.7181 25.1243 7.7181 24.5162V4.39061H7.71865Z" fill="var(--fill-0, #006D93)"/>
</svg>
