<svg preserveAspectRatio="none" width="100%" height="100%" overflow="visible" style="display: block;" viewBox="0 0 129.124 35.1844" fill="none" xmlns="http://www.w3.org/2000/svg">
<g id="Group">
<path id="Vector" d="M2.19503 26.7105C1.58698 26.7105 1.07193 26.4937 0.650424 26.0595C0.21626 25.6375 0 25.1235 0 24.5155V2.32525C0 1.71775 0.21626 1.20324 0.650424 0.781186C1.07193 0.347573 1.58643 0.130208 2.19503 0.130208C2.80253 0.130208 3.31704 0.347573 3.73854 0.781186C4.17271 1.20324 4.39007 1.71775 4.39007 2.32525V24.5155C4.39007 25.123 4.17271 25.6375 3.73854 26.0595C3.31704 26.4942 2.80253 26.7105 2.19503 26.7105Z" fill="var(--fill-0, #006D93)"/>
<path id="Vector_2" d="M28.0611 25.8739H28.0429V25.8558L14.6697 8.65045V24.5164C14.6697 25.1239 14.4523 25.6384 14.0182 26.0605C13.5966 26.4946 13.0821 26.7114 12.4746 26.7114C11.8671 26.7114 11.3526 26.4946 10.9311 26.0605C10.497 25.6384 10.2796 25.1245 10.2796 24.5164V2.2332C10.2796 1.76217 10.4161 1.34066 10.689 0.968127C10.9608 0.584038 11.3207 0.317155 11.767 0.168582C12.2012 0.00735239 12.6474 -0.00474589 13.1064 0.131721C13.5532 0.268188 13.9191 0.522406 14.2047 0.894389L27.5768 18.1184V2.2332C27.5768 1.62571 27.7887 1.1112 28.2096 0.689146C28.6438 0.255532 29.1638 0.0381678 29.7724 0.0381678C30.3799 0.0381678 30.8944 0.255532 31.3159 0.689146C31.7501 1.1112 31.9674 1.62571 31.9674 2.2332V24.5533C31.9674 24.578 31.9608 24.6155 31.9493 24.665C31.9493 24.7145 31.9493 24.7453 31.9493 24.758C31.9493 24.7827 31.9427 24.8196 31.93 24.8691C31.93 24.9192 31.9234 24.9561 31.9119 24.9808L31.8937 25.0738C31.881 25.136 31.8678 25.1734 31.8563 25.1855C31.8563 25.1976 31.8436 25.229 31.8189 25.2785C31.8073 25.3281 31.7941 25.3649 31.7825 25.3897L31.7451 25.4832L31.689 25.5762C31.6774 25.601 31.6576 25.6379 31.6329 25.6874L31.5767 25.7435C31.5652 25.7688 31.5404 25.8057 31.5025 25.8552L31.4463 25.9295C31.4348 25.9416 31.41 25.9664 31.372 26.0043C31.3346 26.0539 31.3099 26.0786 31.2977 26.0786C31.2977 26.0907 31.273 26.1155 31.2235 26.1535C31.186 26.1903 31.1547 26.2151 31.1299 26.2277C31.1673 26.203 31.1613 26.209 31.1118 26.2465L31.0925 26.2646C30.9934 26.3395 30.8999 26.4011 30.8141 26.4506H30.7959C30.6958 26.5007 30.5973 26.5436 30.4982 26.581C30.4476 26.6058 30.436 26.6124 30.4608 26.5992C30.3617 26.6366 30.2566 26.6614 30.1449 26.674L30.0888 26.6922C29.9771 26.7048 29.8714 26.7109 29.7729 26.7109C29.6976 26.7109 29.6172 26.7048 29.5314 26.6922C29.5561 26.7048 29.5429 26.7048 29.494 26.6922C29.4197 26.6806 29.3575 26.6674 29.308 26.6553C29.3195 26.6674 29.2953 26.6619 29.2337 26.6372C29.1715 26.625 29.122 26.6124 29.0846 26.5997C29.073 26.5997 29.0482 26.5882 29.0103 26.5629C28.9481 26.5508 28.8986 26.5321 28.8617 26.5067C28.8358 26.5067 28.8111 26.4952 28.7863 26.4699C28.7368 26.4451 28.6939 26.4264 28.6565 26.4137C28.6201 26.389 28.5943 26.3708 28.5822 26.3576C28.5447 26.3329 28.5018 26.302 28.4523 26.2646C28.4149 26.2399 28.3901 26.2217 28.378 26.2085C28.3158 26.1595 28.2597 26.1094 28.2102 26.0599L28.192 26.0412V26.0225C28.1414 25.973 28.1166 25.9482 28.1166 25.9482C28.1166 25.9482 28.099 25.924 28.0611 25.8739Z" fill="var(--fill-0, #006D93)"/>
<path id="Vector_3" d="M54.8136 18.7688C54.7145 20.9886 53.828 22.8672 52.1547 24.4047C50.4675 25.9421 48.4585 26.7109 46.1275 26.7109C44.1058 26.7109 42.296 26.2773 40.6969 25.4089C38.7743 24.3673 37.5532 22.8546 37.0321 20.8703C36.8835 20.2876 36.9578 19.7356 37.2555 19.2151C37.5648 18.6945 38.0121 18.3594 38.5949 18.2108C39.1776 18.0623 39.7295 18.136 40.2501 18.4337C40.7712 18.7435 41.1058 19.1903 41.2549 19.7731C41.4783 20.6045 42.0858 21.2549 43.0774 21.7265C43.9705 22.1354 44.9874 22.3401 46.1275 22.3401C47.2936 22.3401 48.2912 21.9747 49.1227 21.2428C49.9651 20.5236 50.4114 19.6306 50.462 18.5641C50.4868 17.9198 50.2568 17.3431 49.7731 16.8341C49.0049 16.0158 47.7151 15.5943 45.9052 15.5695H45.886C45.8364 15.5695 45.8238 15.5695 45.8496 15.5695C45.837 15.5695 45.8238 15.5695 45.8122 15.5695C42.7742 15.52 40.4493 14.6456 38.837 12.9464C37.5097 11.5333 36.8907 9.88965 36.9765 8.01763C37.0767 5.78518 37.9632 3.90105 39.6365 2.36305C41.311 0.825591 43.3195 0.0568576 45.6637 0.0568576C47.6843 0.0568576 49.4952 0.49102 51.0943 1.3588C53.0158 2.40046 54.238 3.91371 54.7591 5.89744C54.9077 6.48073 54.8268 7.03209 54.5175 7.55265C54.2198 8.07376 53.779 8.40888 53.1969 8.5569C52.613 8.70602 52.0622 8.63174 51.5406 8.33404C51.0205 8.02479 50.6849 7.57796 50.5369 6.99467C50.3134 6.16376 49.6999 5.51335 48.6956 5.04177C47.8141 4.63237 46.8038 4.42767 45.6637 4.42767C44.4976 4.42767 43.4928 4.7936 42.6498 5.52546C41.8189 6.25677 41.3782 7.14986 41.3292 8.20363C41.3044 8.84855 41.5344 9.43073 42.017 9.95184C42.7863 10.7585 44.0761 11.174 45.886 11.1987H45.9795C49.017 11.2483 51.3424 12.1281 52.9547 13.84C54.2809 15.2416 54.9011 16.8841 54.8136 18.7688Z" fill="var(--fill-0, #006D93)"/>
<path id="Vector_4" d="M71.2639 26.7107C67.5809 26.7107 64.4383 25.4027 61.8339 22.7862C59.2168 20.1823 57.9088 17.0386 57.9088 13.3556C57.9088 9.67266 59.2168 6.52291 61.8339 3.90637C64.4378 1.30249 67.5804 0 71.2639 0C74.9474 0 78.0961 1.30194 80.7131 3.90637C83.317 6.52291 84.619 9.67266 84.619 13.3556C84.619 17.038 83.3176 20.1817 80.7131 22.7862C78.0961 25.4027 74.9469 26.7107 71.2639 26.7107ZM71.2639 6.2753C69.3143 6.2753 67.6497 6.96643 66.2697 8.34761C64.8791 9.7376 64.1836 11.4077 64.1836 13.3567C64.1836 15.3058 64.8791 16.9703 66.2697 18.351C67.6497 19.7415 69.3143 20.4371 71.2639 20.4371C73.2124 20.4371 74.8825 19.7415 76.2736 18.351C77.6547 16.9703 78.3448 15.3058 78.3448 13.3567C78.3448 11.4077 77.6547 9.73815 76.2736 8.34761C74.8825 6.96588 73.2124 6.2753 71.2639 6.2753Z" fill="var(--fill-0, #E9530E)"/>
<path id="Vector_5" d="M105.047 0.0381626C105.654 0.0381626 106.175 0.255527 106.609 0.68914C107.031 1.1233 107.241 1.64386 107.241 2.25191C107.241 2.85941 107.024 3.37391 106.59 3.79541C106.168 4.22958 105.654 4.44693 105.046 4.44693H105.028L93.7925 4.41007V11.1619H101.902C102.51 11.1619 103.031 11.3732 103.465 11.7942C103.899 12.2283 104.117 12.7489 104.117 13.3569C104.117 13.965 103.899 14.4855 103.465 14.9191C103.031 15.3412 102.51 15.5514 101.902 15.5514H93.7925V24.517C93.7925 25.1245 93.5752 25.639 93.1421 26.061C92.708 26.4952 92.1869 26.712 91.5794 26.712C90.9719 26.712 90.4574 26.4952 90.0359 26.061C89.6017 25.639 89.3843 25.125 89.3843 24.517V2.21503C89.3843 1.59543 89.6017 1.07487 90.0359 0.652817C90.4574 0.218654 90.9719 0.00130208 91.5794 0.00130208H91.5975L105.047 0.0381626Z" fill="var(--fill-0, #006D93)"/>
<path id="Vector_6" d="M117.016 4.39061H111.491C110.883 4.39061 110.363 4.17381 109.929 3.73965C109.507 3.31759 109.297 2.80364 109.297 2.19559C109.297 1.58754 109.508 1.07359 109.929 0.651532C110.363 0.217368 110.883 0 111.491 0H126.949C127.543 0 128.058 0.217368 128.492 0.651532C128.914 1.07359 129.124 1.58754 129.124 2.19559C129.124 2.80364 128.913 3.31759 128.492 3.73965C128.058 4.17381 127.543 4.39061 126.949 4.39061H121.405V24.5162C121.405 25.1237 121.188 25.6448 120.755 26.0784C120.332 26.5005 119.818 26.7107 119.21 26.7107C118.603 26.7107 118.088 26.4999 117.667 26.0784C117.232 25.6448 117.015 25.1243 117.015 24.5162V4.39061H117.016Z" fill="var(--fill-0, #006D93)"/>
<path id="Vector_7" d="M79.8404 29.1263H63.5161V35.1842H79.8404V29.1263Z" fill="var(--fill-0, #E9530E)"/>
</g>
</svg>
