<svg preserveAspectRatio="none" width="100%" height="100%" overflow="visible" style="display: block;" viewBox="0 0 17.8568 26.7107" fill="none" xmlns="http://www.w3.org/2000/svg">
<path id="Vector" d="M15.6624 0.0368605C16.2699 0.0368605 16.791 0.254225 17.2251 0.687838C17.6466 1.122 17.8568 1.64256 17.8568 2.25061C17.8568 2.8581 17.6395 3.3726 17.2053 3.79411C16.7838 4.22827 16.2693 4.44563 15.6618 4.44563H15.6437L4.40823 4.40877V11.1606H12.5181C13.1256 11.1606 13.6467 11.3719 14.0809 11.7929C14.5151 12.227 14.7324 12.7476 14.7324 13.3556C14.7324 13.9637 14.5151 14.4842 14.0809 14.9178C13.6467 15.3399 13.1256 15.5501 12.5181 15.5501H4.40823V24.5157C4.40823 25.1232 4.19087 25.6377 3.7578 26.0597C3.32364 26.4939 2.80254 26.7107 2.19504 26.7107C1.58754 26.7107 1.07304 26.4939 0.651532 26.0597C0.217368 25.6377 0 25.1237 0 24.5157V2.21373C0 1.59412 0.217368 1.07357 0.651532 0.651515C1.07304 0.217352 1.58754 0 2.19504 0H2.21319L15.6624 0.0368605Z" fill="var(--fill-0, #006D93)"/>
</svg>
