<svg preserveAspectRatio="none" width="100%" height="100%" overflow="visible" style="display: block;" viewBox="0 0 88.078 24" fill="none" xmlns="http://www.w3.org/2000/svg">
<g id="Group">
<path id="Vector" d="M1.49727 18.2199C1.08251 18.2199 0.731186 18.072 0.443667 17.7758C0.147515 17.4879 0 17.1374 0 16.7226V1.58621C0 1.17182 0.147515 0.820868 0.443667 0.532974C0.731186 0.237198 1.08214 0.0889288 1.49727 0.0889288C1.91166 0.0889288 2.26262 0.237198 2.55014 0.532974C2.84629 0.820868 2.99455 1.17182 2.99455 1.58621V16.7226C2.99455 17.137 2.84629 17.4879 2.55014 17.7758C2.26262 18.0724 1.91166 18.2199 1.49727 18.2199Z" fill="var(--fill-0, white)"/>
<path id="Vector_2" d="M19.141 17.649H19.1286V17.6366L10.0065 5.90054V16.723C10.0065 17.1374 9.85822 17.4884 9.56207 17.7763C9.27455 18.0724 8.92359 18.2203 8.50921 18.2203C8.09482 18.2203 7.74387 18.0724 7.45635 17.7763C7.1602 17.4884 7.01193 17.1378 7.01193 16.723V1.5232C7.01193 1.2019 7.10502 0.914381 7.2912 0.660268C7.47662 0.398273 7.7221 0.216227 8.02651 0.114882C8.32266 0.0049042 8.62707 -0.00334829 8.94011 0.0897387C9.2449 0.182826 9.49451 0.356233 9.68932 0.60997L18.8107 12.3588V1.5232C18.8107 1.10882 18.9552 0.757864 19.2424 0.469969C19.5385 0.174193 19.8932 0.025924 20.3084 0.025924C20.7228 0.025924 21.0737 0.174193 21.3612 0.469969C21.6574 0.757864 21.8056 1.10882 21.8056 1.5232V16.7482C21.8056 16.7651 21.8011 16.7906 21.7933 16.8244C21.7933 16.8582 21.7933 16.8792 21.7933 16.8878C21.7933 16.9047 21.7887 16.9299 21.7801 16.9636C21.7801 16.9978 21.7756 17.0229 21.7677 17.0398L21.7553 17.1033C21.7467 17.1457 21.7377 17.1712 21.7298 17.1795C21.7298 17.1877 21.7212 17.2091 21.7043 17.2429C21.6964 17.2767 21.6874 17.3018 21.6795 17.3187L21.654 17.3825L21.6157 17.446C21.6078 17.4629 21.5943 17.488 21.5774 17.5218L21.5391 17.5601C21.5313 17.5773 21.5144 17.6025 21.4885 17.6363L21.4502 17.6869C21.4423 17.6952 21.4254 17.7121 21.3995 17.738C21.374 17.7718 21.3571 17.7887 21.3488 17.7887C21.3488 17.7969 21.3319 17.8138 21.2982 17.8397C21.2726 17.8649 21.2512 17.8817 21.2344 17.8904C21.2599 17.8735 21.2557 17.8776 21.222 17.9031L21.2088 17.9155C21.1413 17.9666 21.0775 18.0086 21.0189 18.0424H21.0065C20.9382 18.0766 20.871 18.1058 20.8035 18.1314C20.7689 18.1483 20.761 18.1528 20.7779 18.1437C20.7104 18.1693 20.6387 18.1862 20.5625 18.1948L20.5242 18.2072C20.448 18.2158 20.3759 18.2199 20.3087 18.2199C20.2573 18.2199 20.2025 18.2158 20.144 18.2072C20.1609 18.2158 20.1518 18.2158 20.1184 18.2072C20.0678 18.1993 20.0253 18.1903 19.9916 18.182C19.9995 18.1903 19.9829 18.1865 19.9409 18.1696C19.8985 18.1614 19.8647 18.1528 19.8392 18.1441C19.8313 18.1441 19.8144 18.1362 19.7885 18.119C19.7461 18.1107 19.7123 18.0979 19.6872 18.0807C19.6695 18.0807 19.6526 18.0728 19.6357 18.0555C19.602 18.0386 19.5727 18.0259 19.5472 18.0172C19.5224 18.0004 19.5047 17.988 19.4965 17.979C19.471 17.9621 19.4417 17.9411 19.4079 17.9155C19.3824 17.8986 19.3655 17.8863 19.3572 17.8772C19.3148 17.8438 19.2765 17.8097 19.2427 17.7759L19.2304 17.7631V17.7504C19.1958 17.7166 19.1789 17.6997 19.1789 17.6997C19.1789 17.6997 19.1669 17.6832 19.141 17.649Z" fill="var(--fill-0, white)"/>
<path id="Vector_3" d="M37.3895 12.8024C37.3219 14.3166 36.7172 15.5981 35.5758 16.6468C34.4249 17.6955 33.0545 18.2199 31.4645 18.2199C30.0855 18.2199 28.851 17.9241 27.7602 17.3318C26.4487 16.6213 25.6158 15.5894 25.2604 14.2359C25.159 13.8384 25.2097 13.4619 25.4128 13.1069C25.6237 12.7518 25.9289 12.5232 26.3264 12.4218C26.7239 12.3205 27.1003 12.3708 27.4554 12.5739C27.8109 12.7852 28.0391 13.09 28.1408 13.4875C28.2932 14.0546 28.7076 14.4983 29.384 14.82C29.9932 15.0988 30.6868 15.2385 31.4645 15.2385C32.2599 15.2385 32.9404 14.9892 33.5076 14.49C34.0822 13.9994 34.3866 13.3903 34.4212 12.6628C34.4381 12.2233 34.2812 11.8299 33.9512 11.4827C33.4273 10.9246 32.5474 10.637 31.3129 10.6202H31.2998C31.266 10.6202 31.2573 10.6202 31.275 10.6202C31.2664 10.6202 31.2573 10.6202 31.2495 10.6202C29.1772 10.5864 27.5913 9.98995 26.4915 8.83086C25.5862 7.86696 25.1639 6.74579 25.2225 5.46884C25.2908 3.94604 25.8955 2.66084 27.0369 1.61174C28.1791 0.563005 29.5491 0.0386357 31.1481 0.0386357C32.5264 0.0386357 33.7617 0.334787 34.8525 0.926715C36.1632 1.63725 36.9968 2.66948 37.3523 4.02262C37.4536 4.42049 37.3985 4.79659 37.1875 5.15167C36.9845 5.50713 36.6838 5.73572 36.2867 5.83669C35.8884 5.93841 35.5127 5.88774 35.1569 5.68467C34.8022 5.47373 34.5732 5.16893 34.4722 4.77106C34.3198 4.20428 33.9013 3.76062 33.2163 3.43895C32.615 3.15969 31.9259 3.02006 31.1481 3.02006C30.3528 3.02006 29.6674 3.26966 29.0923 3.76888C28.5255 4.26772 28.2249 4.87692 28.1915 5.59572C28.1746 6.03563 28.3315 6.43275 28.6607 6.78821C29.1854 7.33847 30.0652 7.62186 31.2998 7.63875H31.3636C33.4355 7.67253 35.0217 8.27271 36.1215 9.44043C37.0261 10.3964 37.4491 11.5169 37.3895 12.8024Z" fill="var(--fill-0, white)"/>
<path id="Vector_4" d="M48.6106 18.2199C46.0984 18.2199 43.9547 17.3277 42.1782 15.5429C40.393 13.7667 39.5008 11.6224 39.5008 9.11014C39.5008 6.59792 40.393 4.44941 42.1782 2.66462C43.9544 0.888455 46.098 0 48.6106 0C51.1232 0 53.2709 0.88808 55.0561 2.66462C56.8323 4.44941 57.7203 6.59792 57.7203 9.11014C57.7203 11.622 56.8326 13.7664 55.0561 15.5429C53.2709 17.3277 51.1228 18.2199 48.6106 18.2199ZM48.6106 4.28051C47.2807 4.28051 46.1453 4.75195 45.2039 5.69408C44.2554 6.64222 43.7809 7.78141 43.7809 9.1109C43.7809 10.4404 44.2554 11.5758 45.2039 12.5176C46.1453 13.4661 47.2807 13.9405 48.6106 13.9405C49.9397 13.9405 51.0789 13.4661 52.0278 12.5176C52.9699 11.5758 53.4406 10.4404 53.4406 9.1109C53.4406 7.78141 52.9699 6.64259 52.0278 5.69408C51.0789 4.75157 49.9397 4.28051 48.6106 4.28051Z" fill="var(--fill-0, #E9530E)"/>
<path id="Vector_5" d="M71.6545 0.0261425C72.0689 0.0261425 72.4243 0.174411 72.7205 0.470188C73.008 0.76634 73.1514 1.12142 73.1514 1.53618C73.1514 1.95057 73.0031 2.30152 72.707 2.58904C72.4195 2.88519 72.0685 3.03345 71.6541 3.03345H71.6417L63.9778 3.00831V7.61386H69.5097C69.9241 7.61386 70.2796 7.758 70.5757 8.04515C70.8719 8.3413 71.0202 8.69638 71.0202 9.11114C71.0202 9.5259 70.8719 9.88098 70.5757 10.1768C70.2796 10.4647 69.9241 10.608 69.5097 10.608H63.9778V16.7236C63.9778 17.138 63.8296 17.489 63.5342 17.7769C63.238 18.073 62.8825 18.2209 62.4682 18.2209C62.0538 18.2209 61.7028 18.073 61.4153 17.7769C61.1192 17.489 60.9709 17.1384 60.9709 16.7236V1.51103C60.9709 1.08838 61.1192 0.733305 61.4153 0.445411C61.7028 0.149259 62.0538 0.0009992 62.4682 0.0009992H62.4805L71.6545 0.0261425Z" fill="var(--fill-0, white)"/>
<path id="Vector_6" d="M79.8188 2.99493H76.0506C75.6359 2.99493 75.2808 2.84704 74.9846 2.55089C74.6971 2.263 74.5537 1.91242 74.5537 1.49766C74.5537 1.0829 74.6975 0.732318 74.9846 0.444423C75.2808 0.148272 75.6355 0 76.0506 0H86.5942C86.9996 0 87.3509 0.148272 87.6471 0.444423C87.9346 0.732318 88.078 1.0829 88.078 1.49766C88.078 1.91242 87.9342 2.263 87.6471 2.55089C87.3509 2.84704 86.9996 2.99493 86.5942 2.99493H82.8129V16.723C82.8129 17.1374 82.6647 17.4929 82.3693 17.7886C82.081 18.0765 81.73 18.2199 81.3157 18.2199C80.9013 18.2199 80.5503 18.0762 80.2628 17.7886C79.9666 17.4929 79.8184 17.1378 79.8184 16.723V2.99493H79.8188Z" fill="var(--fill-0, white)"/>
<path id="Vector_7" d="M54.4608 19.8678H43.3257V24H54.4608V19.8678Z" fill="var(--fill-0, #E9530E)"/>
</g>
</svg>
