<svg preserveAspectRatio="none" width="100%" height="100%" overflow="visible" style="display: block;" viewBox="0 0 21.6878 26.6737" fill="none" xmlns="http://www.w3.org/2000/svg">
<path id="Vector" d="M17.7815 25.8362H17.7633V25.818L4.39007 8.61269V24.4787C4.39007 25.0861 4.17271 25.6007 3.73854 26.0227C3.31703 26.4569 2.80253 26.6737 2.19503 26.6737C1.58753 26.6737 1.07303 26.4569 0.651524 26.0227C0.21736 25.6007 0 25.0867 0 24.4787V2.19544C0 1.72441 0.136469 1.3029 0.409403 0.930366C0.681237 0.546277 1.04111 0.279394 1.48738 0.130821C1.92155 -0.030408 2.36782 -0.0425063 2.82674 0.0939608C3.27356 0.230428 3.6395 0.484645 3.92509 0.856628L17.2972 18.0806V2.19544C17.2972 1.58795 17.5091 1.07344 17.93 0.651385C18.3642 0.217772 18.8842 0.000407408 19.4928 0.000407408C20.1003 0.000407408 20.6148 0.217772 21.0363 0.651385C21.4705 1.07344 21.6878 1.58795 21.6878 2.19544V24.5155C21.6878 24.5403 21.6812 24.5777 21.6697 24.6272C21.6697 24.6767 21.6697 24.7076 21.6697 24.7202C21.6697 24.745 21.6631 24.7818 21.6504 24.8314C21.6504 24.8814 21.6438 24.9183 21.6322 24.9431L21.6141 25.0361C21.6014 25.0983 21.5882 25.1357 21.5767 25.1478C21.5767 25.1599 21.564 25.1913 21.5392 25.2408C21.5277 25.2903 21.5145 25.3272 21.5029 25.3519L21.4655 25.4455L21.4094 25.5385C21.3978 25.5632 21.378 25.6001 21.3533 25.6496L21.2971 25.7058C21.2856 25.7311 21.2608 25.7679 21.2228 25.8175L21.1667 25.8917C21.1552 25.9038 21.1304 25.9286 21.0924 25.9666C21.055 26.0161 21.0302 26.0409 21.0181 26.0409C21.0181 26.053 20.9934 26.0777 20.9439 26.1157C20.9064 26.1526 20.8751 26.1773 20.8503 26.19C20.8877 26.1652 20.8817 26.1713 20.8321 26.2087L20.8129 26.2269C20.7138 26.3017 20.6203 26.3633 20.5344 26.4129H20.5163C20.4161 26.4629 20.3176 26.5059 20.2186 26.5433C20.168 26.568 20.1564 26.5746 20.1812 26.5614C20.0821 26.5988 19.977 26.6236 19.8653 26.6363L19.8092 26.6544C19.6975 26.6671 19.5918 26.6731 19.4933 26.6731C19.418 26.6731 19.3376 26.6671 19.2518 26.6544C19.2765 26.6671 19.2633 26.6671 19.2143 26.6544C19.1401 26.6429 19.0779 26.6297 19.0284 26.6175C19.0399 26.6297 19.0157 26.6242 18.9541 26.5994C18.8919 26.5873 18.8424 26.5746 18.805 26.562C18.7934 26.562 18.7686 26.5504 18.7307 26.5251C18.6685 26.513 18.619 26.4943 18.5821 26.469C18.5562 26.469 18.5315 26.4574 18.5067 26.4321C18.4572 26.4073 18.4143 26.3886 18.3768 26.376C18.3405 26.3512 18.3147 26.3331 18.3026 26.3199C18.2651 26.2951 18.2222 26.2643 18.1727 26.2269C18.1353 26.2021 18.1105 26.1839 18.0984 26.1707C18.0362 26.1218 17.9801 26.0717 17.9306 26.0222L17.9124 26.0034V25.9847C17.8618 25.9352 17.837 25.9104 17.837 25.9104C17.837 25.9104 17.8194 25.8862 17.7815 25.8362Z" fill="var(--fill-0, #006D93)"/>
</svg>
