<svg preserveAspectRatio="none" width="100%" height="100%" overflow="visible" style="display: block;" viewBox="0 0 182.542 80" fill="none" xmlns="http://www.w3.org/2000/svg">
<g id="Group">
<g id="Group_2">
<path id="Vector" d="M29.1951 53.289C28.587 53.289 28.072 53.0722 27.6505 52.638C27.2163 52.216 27 51.702 27 51.094V28.9038C27 28.2963 27.2163 27.7817 27.6505 27.3597C28.072 26.9261 28.5865 26.7087 29.1951 26.7087C29.8026 26.7087 30.3171 26.9261 30.7386 27.3597C31.1727 27.7817 31.3901 28.2963 31.3901 28.9038V51.094C31.3901 51.7015 31.1727 52.216 30.7386 52.638C30.3171 53.0727 29.8026 53.289 29.1951 53.289Z" fill="var(--fill-0, #006D93)"/>
<path id="Vector_2" d="M55.0611 52.4524H55.0429V52.4343L41.6697 35.229V51.0949C41.6697 51.7024 41.4523 52.2169 41.0182 52.639C40.5967 53.0731 40.0822 53.29 39.4747 53.29C38.8672 53.29 38.3527 53.0731 37.9312 52.639C37.497 52.2169 37.2796 51.703 37.2796 51.0949V28.8117C37.2796 28.3407 37.4161 27.9192 37.689 27.5466C37.9609 27.1625 38.3208 26.8957 38.767 26.7471C39.2012 26.5859 39.6475 26.5738 40.1064 26.7102C40.5532 26.8467 40.9191 27.1009 41.2047 27.4729L54.5769 44.6969V28.8117C54.5769 28.2042 54.7887 27.6897 55.2097 27.2677C55.6438 26.834 56.1638 26.6167 56.7724 26.6167C57.3799 26.6167 57.8944 26.834 58.3159 27.2677C58.7501 27.6897 58.9675 28.2042 58.9675 28.8117V51.1318C58.9675 51.1565 58.9609 51.194 58.9493 51.2435C58.9493 51.293 58.9493 51.3238 58.9493 51.3365C58.9493 51.3612 58.9427 51.3981 58.93 51.4476C58.93 51.4977 58.9234 51.5346 58.9119 51.5593L58.8937 51.6523C58.8811 51.7145 58.8679 51.7519 58.8563 51.764C58.8563 51.7762 58.8437 51.8075 58.8189 51.857C58.8073 51.9066 58.7941 51.9434 58.7826 51.9682L58.7452 52.0617L58.689 52.1547C58.6775 52.1795 58.6577 52.2164 58.6329 52.2659L58.5768 52.322C58.5652 52.3473 58.5405 52.3842 58.5025 52.4337L58.4464 52.508C58.4348 52.5201 58.41 52.5449 58.3721 52.5829C58.3347 52.6324 58.3099 52.6571 58.2978 52.6571C58.2978 52.6692 58.273 52.694 58.2235 52.732C58.1861 52.7688 58.1547 52.7936 58.13 52.8063C58.1674 52.7815 58.1613 52.7876 58.1118 52.825L58.0925 52.8431C57.9935 52.918 57.8999 52.9796 57.8141 53.0291H57.7959C57.6958 53.0792 57.5973 53.1221 57.4982 53.1595C57.4476 53.1843 57.4361 53.1909 57.4608 53.1777C57.3618 53.2151 57.2567 53.2399 57.145 53.2525L57.0888 53.2707C56.9771 53.2833 56.8715 53.2894 56.773 53.2894C56.6976 53.2894 56.6173 53.2833 56.5314 53.2707C56.5562 53.2833 56.543 53.2833 56.494 53.2707C56.4197 53.2591 56.3575 53.2459 56.308 53.2338C56.3196 53.2459 56.2953 53.2404 56.2337 53.2157C56.1715 53.2036 56.122 53.1909 56.0846 53.1782C56.073 53.1782 56.0483 53.1667 56.0103 53.1414C55.9481 53.1293 55.8986 53.1106 55.8617 53.0852C55.8359 53.0852 55.8111 53.0737 55.7863 53.0484C55.7368 53.0236 55.6939 53.0049 55.6565 52.9922C55.6202 52.9675 55.5943 52.9493 55.5822 52.9361C55.5448 52.9114 55.5019 52.8805 55.4523 52.8431C55.4149 52.8184 55.3902 52.8002 55.378 52.787C55.3159 52.738 55.2597 52.6879 55.2102 52.6384L55.1921 52.6197V52.601C55.1414 52.5515 55.1167 52.5267 55.1167 52.5267C55.1167 52.5267 55.0991 52.5025 55.0611 52.4524Z" fill="var(--fill-0, #006D93)"/>
<path id="Vector_3" d="M81.8136 45.3473C81.7145 47.5671 80.8281 49.4457 79.1547 50.9832C77.4676 52.5207 75.4585 53.2894 73.1276 53.2894C71.1059 53.2894 69.296 52.8558 67.6969 51.9874C65.7743 50.9458 64.5532 49.4331 64.0321 47.4488C63.8836 46.8661 63.9579 46.3141 64.2556 45.7936C64.5648 45.273 65.0122 44.9379 65.5949 44.7893C66.1776 44.6408 66.7296 44.7145 67.2501 45.0122C67.7712 45.322 68.1058 45.7688 68.2549 46.3516C68.4783 47.183 69.0858 47.8334 70.0774 48.305C70.9705 48.7139 71.9874 48.9186 73.1276 48.9186C74.2936 48.9186 75.2912 48.5532 76.1227 47.8213C76.9652 47.1021 77.4114 46.2091 77.462 45.1426C77.4868 44.4983 77.2568 43.9216 76.7731 43.4126C76.0049 42.5943 74.7151 42.1728 72.9053 42.148H72.886C72.8365 42.148 72.8238 42.148 72.8497 42.148C72.837 42.148 72.8238 42.148 72.8123 42.148C69.7742 42.0985 67.4493 41.2241 65.837 39.5249C64.5098 38.1118 63.8907 36.4682 63.9766 34.5961C64.0767 32.3637 64.9632 30.4796 66.6366 28.9416C68.311 27.4041 70.3195 26.6354 72.6637 26.6354C74.6843 26.6354 76.4952 27.0695 78.0943 27.9373C80.0159 28.979 81.238 30.4922 81.7591 32.4759C81.9077 33.0592 81.8268 33.6106 81.5176 34.1312C81.2199 34.6523 80.7791 34.9874 80.1969 35.1354C79.6131 35.2845 79.0622 35.2102 78.5406 34.9125C78.0206 34.6033 77.6849 34.1565 77.5369 33.5732C77.3135 32.7423 76.6999 32.0919 75.6957 31.6203C74.8141 31.2109 73.8039 31.0062 72.6637 31.0062C71.4977 31.0062 70.4929 31.3721 69.6499 32.104C68.8189 32.8353 68.3782 33.7284 68.3292 34.7821C68.3044 35.4271 68.5345 36.0092 69.017 36.5303C69.7863 37.337 71.0762 37.7525 72.886 37.7773H72.9795C76.017 37.8268 78.3425 38.7067 79.9548 40.4185C81.2809 41.8201 81.9011 43.4626 81.8136 45.3473Z" fill="var(--fill-0, #006D93)"/>
<path id="Vector_4" d="M98.2639 53.2892C94.581 53.2892 91.4384 51.9812 88.834 49.3647C86.2169 46.7608 84.9089 43.6171 84.9089 39.9341C84.9089 36.2512 86.2169 33.1014 88.834 30.4849C91.4378 27.881 94.5804 26.5785 98.2639 26.5785C101.947 26.5785 105.096 27.8804 107.713 30.4849C110.317 33.1014 111.619 36.2512 111.619 39.9341C111.619 43.6165 110.318 46.7602 107.713 49.3647C105.096 51.9812 101.947 53.2892 98.2639 53.2892ZM98.2639 32.8538C96.3143 32.8538 94.6498 33.5449 93.2697 34.9261C91.8792 36.3161 91.1836 37.9862 91.1836 39.9352C91.1836 41.8843 91.8792 43.5489 93.2697 44.9295C94.6498 46.32 96.3143 47.0156 98.2639 47.0156C100.212 47.0156 101.883 46.32 103.274 44.9295C104.655 43.5489 105.345 41.8843 105.345 39.9352C105.345 37.9862 104.655 36.3167 103.274 34.9261C101.883 33.5444 100.212 32.8538 98.2639 32.8538Z" fill="var(--fill-0, #E9530E)"/>
<path id="Vector_5" d="M132.047 26.6167C132.654 26.6167 133.175 26.834 133.609 27.2676C134.031 27.7018 134.241 28.2224 134.241 28.8304C134.241 29.4379 134.024 29.9524 133.59 30.3739C133.168 30.8081 132.654 31.0254 132.046 31.0254H132.028L120.793 30.9886V37.7404H128.902C129.51 37.7404 130.031 37.9517 130.465 38.3727C130.899 38.8068 131.117 39.3274 131.117 39.9354C131.117 40.5435 130.899 41.064 130.465 41.4976C130.031 41.9197 129.51 42.1299 128.902 42.1299H120.793V51.0955C120.793 51.703 120.575 52.2175 120.142 52.6395C119.708 53.0737 119.187 53.2905 118.579 53.2905C117.972 53.2905 117.457 53.0737 117.036 52.6395C116.602 52.2175 116.384 51.7035 116.384 51.0955V28.7935C116.384 28.1739 116.602 27.6534 117.036 27.2313C117.457 26.7972 117.972 26.5798 118.579 26.5798H118.598L132.047 26.6167Z" fill="var(--fill-0, #006D93)"/>
<path id="Vector_6" d="M144.016 30.9691H138.491C137.883 30.9691 137.363 30.7523 136.929 30.3182C136.507 29.8961 136.297 29.3821 136.297 28.7741C136.297 28.166 136.508 27.6521 136.929 27.23C137.363 26.7959 137.883 26.5785 138.491 26.5785H153.949C154.543 26.5785 155.058 26.7959 155.492 27.23C155.914 27.6521 156.124 28.166 156.124 28.7741C156.124 29.3821 155.913 29.8961 155.492 30.3182C155.058 30.7523 154.543 30.9691 153.949 30.9691H148.405V51.0947C148.405 51.7022 148.188 52.2233 147.755 52.6569C147.332 53.079 146.818 53.2892 146.21 53.2892C145.603 53.2892 145.088 53.0784 144.667 52.6569C144.232 52.2233 144.015 51.7028 144.015 51.0947V30.9691H144.016Z" fill="var(--fill-0, #006D93)"/>
<path id="Vector_7" d="M106.84 55.7048H90.5162V61.7627H106.84V55.7048Z" fill="var(--fill-0, #E9530E)"/>
</g>
<g id="Vector_8">
</g>
</g>
</svg>
